<svg width="316.097509765625px" height="121.40498046875px" xmlns="http://www.w3.org/2000/svg" viewBox="91.95124511718751 14.297509765625001 316.097509765625 121.40498046875" style="background: rgba(0, 0, 0, 0);" preserveAspectRatio="xMidYMid"><defs><filter id="editing-extrusion" x="-100%" y="-100%" width="300%" height="300%"><feFlood result="color1" flood-color="#444"></feFlood><feConvolveMatrix order="8,8" divisor="1" kernelMatrix="1 0 0 0 0 0 0 0 0 1 0 0 0 0 0 0 0 0 1 0 0 0 0 0 0 0 0 1 0 0 0 0 0 0 0 0 1 0 0 0 0 0 0 0 0 1 0 0 0 0 0 0 0 0 1 0 0 0 0 0 0 0 0 1" in="SourceAlpha" result="extrude"></feConvolveMatrix><feComposite in="color1" in2="extrude" result="comp-extrude" operator="in"></feComposite><feOffset dx="4" dy="4" in="comp-extrude" result="offset-extrude"></feOffset><feMerge><feMergeNode in="offset-extrude"></feMergeNode><feMergeNode in="SourceGraphic"></feMergeNode></feMerge></filter></defs><g filter="url(#editing-extrusion)"><g transform="translate(141.71000397205353, 99)"><path d="M26.05-29.57L26.05-29.57L26.05-29.57Q27.01-31.49 27.01-33.28L27.01-33.28L27.01-33.28Q27.01-35.07 26.82-36.06L26.82-36.06L26.82-36.06Q26.62-37.06 26.18-37.82L26.18-37.82L26.18-37.82Q25.22-39.49 23.30-39.49L23.30-39.49L23.30-39.49Q20.93-39.49 19.01-37.76L19.01-37.76L19.01-37.76Q16.96-35.97 16.96-33.15L16.96-33.15L16.96-33.15Q16.96-31.36 18.21-29.98L18.21-29.98L18.21-29.98Q19.46-28.61 21.38-27.33L21.38-27.33L21.38-27.33Q23.30-26.05 25.47-24.77L25.47-24.77L25.47-24.77Q27.65-23.49 29.57-21.95L29.57-21.95L29.57-21.95Q33.98-18.43 33.98-13.70L33.98-13.70L33.98-13.70Q33.98-10.50 32.29-7.78L32.29-7.78L32.29-7.78Q30.59-5.06 27.78-3.07L27.78-3.07L27.78-3.07Q21.63 1.28 13.50 1.28L13.50 1.28L13.50 1.28Q6.91 1.28 3.52-0.86L3.52-0.86L3.52-0.86Q0.13-3.01 0.13-6.27L0.13-6.27L0.13-6.27Q0.13-12.10 4.67-13.57L4.67-13.57L4.67-13.57Q5.95-14.02 7.90-14.02L7.90-14.02L7.90-14.02Q9.86-14.02 12.10-13.18L12.10-13.18L12.10-13.18Q11.07-10.56 11.07-8.19L11.07-8.19L11.07-8.19Q11.07-3.07 14.72-3.07L14.72-3.07L14.72-3.07Q17.09-3.07 19.04-4.80L19.04-4.80L19.04-4.80Q20.99-6.53 20.99-8.48L20.99-8.48L20.99-8.48Q20.99-10.43 19.74-11.84L19.74-11.84L19.74-11.84Q18.50-13.25 16.64-14.37L16.64-14.37L16.64-14.37Q14.78-15.49 12.64-16.58L12.64-16.58L12.64-16.58Q10.50-17.66 8.64-19.20L8.64-19.20L8.64-19.20Q4.29-22.72 4.29-28.35L4.29-28.35L4.29-28.35Q4.29-32 6.08-34.85L6.08-34.85L6.08-34.85Q7.87-37.70 10.75-39.62L10.75-39.62L10.75-39.62Q16.51-43.52 23.58-43.52L23.58-43.52L23.58-43.52Q30.66-43.52 34.08-41.41L34.08-41.41L34.08-41.41Q37.50-39.30 37.50-35.71L37.50-35.71L37.50-35.71Q37.50-32.58 35.07-30.59L35.07-30.59L35.07-30.59Q32.96-28.93 30.40-28.93L30.40-28.93L30.40-28.93Q27.84-28.93 26.05-29.57ZM39.87-6.40L39.87-6.40L39.87-6.40Q39.87-8.13 40.77-12.48L40.77-12.48L44.16-29.76L40.38-29.76L40.64-31.68L40.64-31.68Q48.32-33.98 55.74-39.62L55.74-39.62L58.82-39.62L57.28-32.64L62.27-32.64L61.70-29.76L56.77-29.76L53.50-12.48L53.50-12.48Q52.67-8.51 52.67-7.17L52.67-7.17L52.67-7.17Q52.67-4.10 55.36-3.46L55.36-3.46L55.36-3.46Q54.72-1.28 52.42 0L52.42 0L52.42 0Q50.11 1.28 46.85 1.28L46.85 1.28L46.85 1.28Q43.58 1.28 41.73-0.77L41.73-0.77L41.73-0.77Q39.87-2.82 39.87-6.40ZM75.65 1.28L75.65 1.28L75.65 1.28Q61.57 1.28 61.57-11.97L61.57-11.97L61.57-11.97Q61.57-21.38 66.75-27.46L66.75-27.46L66.75-27.46Q72.26-33.92 81.79-33.92L81.79-33.92L81.79-33.92Q88.70-33.92 92.22-30.72L92.22-30.72L92.22-30.72Q95.74-27.52 95.74-20.80L95.74-20.80L95.74-20.80Q95.74-10.56 90.24-4.61L90.24-4.61L90.24-4.61Q84.86 1.28 75.65 1.28ZM77.31-26.56L77.31-26.56L77.31-26.56Q76.54-24.83 75.94-22.24L75.94-22.24L75.94-22.24Q75.33-19.65 74.56-15.55L74.56-15.55L74.56-15.55Q73.79-11.46 73.79-6.40L73.79-6.40L73.79-6.40Q73.79-4.74 74.34-3.65L74.34-3.65L74.34-3.65Q74.88-2.56 76.35-2.56L76.35-2.56L76.35-2.56Q77.82-2.56 78.75-3.26L78.75-3.26L78.75-3.26Q79.68-3.97 80.38-5.63L80.38-5.63L80.38-5.63Q81.66-8.58 82.69-14.05L82.69-14.05L82.69-14.05Q83.71-19.52 83.81-21.89L83.81-21.89L83.81-21.89Q83.90-24.26 83.90-26.02L83.90-26.02L83.90-26.02Q83.90-27.78 83.39-28.93L83.39-28.93L83.39-28.93Q82.88-30.08 81.44-30.08L81.44-30.08L81.44-30.08Q80-30.08 79.04-29.18L79.04-29.18L79.04-29.18Q78.08-28.29 77.31-26.56ZM119.55-17.98L119.55-17.98L119.55-17.98Q121.86-22.08 121.86-26.24L121.86-26.24L121.86-26.24Q121.86-28.99 119.87-28.99L119.87-28.99L119.87-28.99Q118.34-28.99 116.74-26.37L116.74-26.37L116.74-26.37Q115.07-23.74 114.56-20.35L114.56-20.35L111.23 0L97.98 1.28L104.51-32.64L115.07-33.92L113.92-27.46L113.92-27.46Q117.06-33.92 124.10-33.92L124.10-33.92L124.10-33.92Q127.81-33.92 129.82-32L129.82-32L129.82-32Q131.84-30.08 131.84-26.14L131.84-26.14L131.84-26.14Q131.84-22.21 129.25-19.71L129.25-19.71L129.25-19.71Q126.66-17.22 122.24-17.22L122.24-17.22L122.24-17.22Q120.32-17.22 119.55-17.98ZM148.22-3.52L148.22-3.52L148.22-3.52Q146.24 1.28 139.90 1.28L139.90 1.28L139.90 1.28Q136.64 1.28 134.59-0.96L134.59-0.96L134.59-0.96Q132.86-2.94 132.86-4.93L132.86-4.93L132.86-4.93Q132.86-10.11 135.23-20.22L135.23-20.22L137.60-32.64L150.59-33.92L146.69-13.70L146.69-13.70Q145.60-8.96 145.60-7.30L145.60-7.30L145.60-7.30Q145.60-3.65 148.22-3.52ZM138.75-41.54L138.75-41.54L138.75-41.54Q138.75-44.03 140.83-45.38L140.83-45.38L140.83-45.38Q142.91-46.72 145.92-46.72L145.92-46.72L145.92-46.72Q148.93-46.72 150.75-45.38L150.75-45.38L150.75-45.38Q152.58-44.03 152.58-41.54L152.58-41.54L152.58-41.54Q152.58-39.04 150.56-37.76L150.56-37.76L150.56-37.76Q148.54-36.48 145.54-36.48L145.54-36.48L145.54-36.48Q142.53-36.48 140.64-37.76L140.64-37.76L140.64-37.76Q138.75-39.04 138.75-41.54ZM179.58-10.82L179.58-10.82L179.58-10.82Q181.18-9.73 181.18-7.33L181.18-7.33L181.18-7.33Q181.18-4.93 179.97-3.39L179.97-3.39L179.97-3.39Q178.75-1.86 176.77-0.83L176.77-0.83L176.77-0.83Q172.67 1.28 168.26 1.28L168.26 1.28L168.26 1.28Q163.84 1.28 161.25 0.32L161.25 0.32L161.25 0.32Q158.66-0.64 156.93-2.43L156.93-2.43L156.93-2.43Q153.54-5.82 153.54-12.03L153.54-12.03L153.54-12.03Q153.54-21.70 158.78-27.58L158.78-27.58L158.78-27.58Q164.42-33.92 174.21-33.92L174.21-33.92L174.21-33.92Q180.29-33.92 183.30-31.36L183.30-31.36L183.30-31.36Q185.54-29.44 185.54-26.30L185.54-26.30L185.54-26.30Q185.54-15.04 166.08-15.04L166.08-15.04L166.08-15.04Q165.82-13.38 165.82-11.97L165.82-11.97L165.82-11.97Q165.82-9.02 167.14-7.90L167.14-7.90L167.14-7.90Q168.45-6.78 170.88-6.78L170.88-6.78L170.88-6.78Q173.31-6.78 175.90-7.90L175.90-7.90L175.90-7.90Q178.50-9.02 179.58-10.82ZM166.53-17.79L166.53-17.79L166.53-17.79Q171.07-17.79 173.70-20.61L173.70-20.61L173.70-20.61Q176.32-23.30 176.32-27.58L176.32-27.58L176.32-27.58Q176.32-29.06 175.78-29.86L175.78-29.86L175.78-29.86Q175.23-30.66 174.14-30.66L174.14-30.66L174.14-30.66Q173.06-30.66 172.13-30.24L172.13-30.24L172.13-30.24Q171.20-29.82 170.24-28.42L170.24-28.42L170.24-28.42Q167.87-25.22 166.53-17.79ZM206.85-22.46L206.85-22.46L206.85-22.46Q207.74-24.83 207.74-26.88L207.74-26.88L207.74-26.88Q207.74-30.66 204.67-30.66L204.67-30.66L204.67-30.66Q203.07-30.66 201.76-29.22L201.76-29.22L201.76-29.22Q200.45-27.78 200.45-25.98L200.45-25.98L200.45-25.98Q200.45-24.70 201.47-23.68L201.47-23.68L201.47-23.68Q202.94-22.27 206.72-19.97L206.72-19.97L206.72-19.97Q210.50-17.66 211.94-15.78L211.94-15.78L211.94-15.78Q213.38-13.89 213.38-11.30L213.38-11.30L213.38-11.30Q213.38-8.70 212.13-6.34L212.13-6.34L212.13-6.34Q210.88-3.97 208.64-2.30L208.64-2.30L208.64-2.30Q203.84 1.28 196.16 1.28L196.16 1.28L196.16 1.28Q192 1.28 188.80-0.90L188.80-0.90L188.80-0.90Q185.60-3.01 185.60-5.50L185.60-5.50L185.60-5.50Q185.60-8 187.42-9.47L187.42-9.47L187.42-9.47Q189.25-10.94 191.94-10.94L191.94-10.94L191.94-10.94Q194.62-10.94 196.29-9.92L196.29-9.92L196.29-9.92Q195.46-7.81 195.46-6.40L195.46-6.40L195.46-6.40Q195.46-2.18 199.04-2.18L199.04-2.18L199.04-2.18Q200.58-2.18 201.60-3.14L201.60-3.14L201.60-3.14Q202.62-4.10 202.62-5.76L202.62-5.76L202.62-5.76Q202.62-9.02 197.12-12.48L197.12-12.48L197.12-12.48Q192.64-15.42 191.62-16.58L191.62-16.58L191.62-16.58Q189.89-18.62 189.89-21.18L189.89-21.18L189.89-21.18Q189.89-23.74 191.10-26.18L191.10-26.18L191.10-26.18Q192.32-28.61 194.56-30.34L194.56-30.34L194.56-30.34Q199.23-33.92 207.36-33.92L207.36-33.92L207.36-33.92Q211.52-33.92 213.98-32.26L213.98-32.26L213.98-32.26Q216.45-30.59 216.45-27.78L216.45-27.78L216.45-27.78Q216.45-24.96 214.75-23.36L214.75-23.36L214.75-23.36Q213.06-21.76 209.98-21.76L209.98-21.76L209.98-21.76Q207.87-21.76 206.85-22.46Z" fill="#ccc"></path></g></g><style>text {
  font-size: 64px;
  font-family: Arial Black;
  dominant-baseline: central;
  text-anchor: middle;
}</style></svg>